<mxfile host="Electron" modified="2024-01-01T20:03:27.971Z" agent="Mozilla/5.0 (Windows NT 10.0; Win64; x64) AppleWebKit/537.36 (KHTML, like Gecko) draw.io/22.0.3 Chrome/114.0.5735.289 Electron/25.8.4 Safari/537.36" etag="unQR1J9K27RhBci2gEpw" version="22.0.3" type="device">
  <diagram name="Pagina-1" id="iPlCl5RxlYhNKrO3j6zb">
    <mxGraphModel dx="1240" dy="816" grid="1" gridSize="10" guides="1" tooltips="1" connect="1" arrows="1" fold="1" page="1" pageScale="1" pageWidth="1654" pageHeight="2336" math="0" shadow="0">
      <root>
        <mxCell id="0" />
        <mxCell id="1" parent="0" />
        <mxCell id="NGxbDgoNibZJ7JYDKcb8-4" value="ServiceRegistry" style="sketch=0;pointerEvents=1;shadow=0;dashed=0;html=1;labelPosition=center;verticalLabelPosition=middle;verticalAlign=middle;outlineConnect=0;align=center;shape=mxgraph.office.concepts.folder;fontStyle=1;fillColor=#f5f5f5;fontColor=#333333;strokeColor=#666666;" vertex="1" parent="1">
          <mxGeometry x="240" y="230" width="110" height="90" as="geometry" />
        </mxCell>
        <mxCell id="NGxbDgoNibZJ7JYDKcb8-5" value="EventQueue" style="sketch=0;pointerEvents=1;shadow=0;dashed=0;html=1;labelPosition=center;verticalLabelPosition=middle;verticalAlign=middle;outlineConnect=0;align=center;shape=mxgraph.office.concepts.folder;fontStyle=1;fillColor=#f5f5f5;fontColor=#333333;strokeColor=#666666;" vertex="1" parent="1">
          <mxGeometry x="400" y="230" width="110" height="90" as="geometry" />
        </mxCell>
        <mxCell id="NGxbDgoNibZJ7JYDKcb8-6" value="SubmissionQueue" style="sketch=0;pointerEvents=1;shadow=0;dashed=0;html=1;labelPosition=center;verticalLabelPosition=middle;verticalAlign=middle;outlineConnect=0;align=center;shape=mxgraph.office.concepts.folder;fontStyle=1;fillColor=#f5f5f5;fontColor=#333333;strokeColor=#666666;" vertex="1" parent="1">
          <mxGeometry x="560" y="230" width="110" height="90" as="geometry" />
        </mxCell>
        <mxCell id="NGxbDgoNibZJ7JYDKcb8-7" value="NotificationQueue" style="sketch=0;pointerEvents=1;shadow=0;dashed=0;html=1;strokeColor=#666666;labelPosition=center;verticalLabelPosition=middle;verticalAlign=middle;outlineConnect=0;align=center;shape=mxgraph.office.concepts.folder;fillColor=#f5f5f5;fontStyle=1;fontColor=#333333;" vertex="1" parent="1">
          <mxGeometry x="720" y="230" width="110" height="90" as="geometry" />
        </mxCell>
        <mxCell id="NGxbDgoNibZJ7JYDKcb8-8" value="Driver" style="sketch=0;pointerEvents=1;shadow=0;dashed=0;html=1;strokeColor=#82b366;labelPosition=center;verticalLabelPosition=middle;verticalAlign=middle;outlineConnect=0;align=center;shape=mxgraph.office.concepts.folder;fillColor=#d5e8d4;fontStyle=1" vertex="1" parent="1">
          <mxGeometry x="240" y="70" width="110" height="90" as="geometry" />
        </mxCell>
        <mxCell id="NGxbDgoNibZJ7JYDKcb8-10" value="Driver" style="sketch=0;pointerEvents=1;shadow=0;dashed=0;html=1;strokeColor=#82b366;labelPosition=center;verticalLabelPosition=middle;verticalAlign=middle;outlineConnect=0;align=center;shape=mxgraph.office.concepts.folder;fillColor=#d5e8d4;fontStyle=1" vertex="1" parent="1">
          <mxGeometry x="400" y="70" width="110" height="90" as="geometry" />
        </mxCell>
        <mxCell id="NGxbDgoNibZJ7JYDKcb8-11" value="Driver" style="sketch=0;pointerEvents=1;shadow=0;dashed=0;html=1;strokeColor=#82b366;labelPosition=center;verticalLabelPosition=middle;verticalAlign=middle;outlineConnect=0;align=center;shape=mxgraph.office.concepts.folder;fillColor=#d5e8d4;fontStyle=1" vertex="1" parent="1">
          <mxGeometry x="560" y="70" width="110" height="90" as="geometry" />
        </mxCell>
        <mxCell id="NGxbDgoNibZJ7JYDKcb8-12" value="Driver" style="sketch=0;pointerEvents=1;shadow=0;dashed=0;html=1;strokeColor=#82b366;labelPosition=center;verticalLabelPosition=middle;verticalAlign=middle;outlineConnect=0;align=center;shape=mxgraph.office.concepts.folder;fillColor=#d5e8d4;fontStyle=1" vertex="1" parent="1">
          <mxGeometry x="717" y="70" width="110" height="90" as="geometry" />
        </mxCell>
        <mxCell id="NGxbDgoNibZJ7JYDKcb8-13" value="" style="endArrow=none;html=1;rounded=0;endFill=0;startArrow=classic;startFill=1;" edge="1" parent="1">
          <mxGeometry width="50" height="50" relative="1" as="geometry">
            <mxPoint x="289" y="237" as="sourcePoint" />
            <mxPoint x="289" y="167" as="targetPoint" />
          </mxGeometry>
        </mxCell>
        <mxCell id="NGxbDgoNibZJ7JYDKcb8-14" value="" style="endArrow=none;html=1;rounded=0;startArrow=classic;startFill=1;" edge="1" parent="1">
          <mxGeometry width="50" height="50" relative="1" as="geometry">
            <mxPoint x="450" y="237" as="sourcePoint" />
            <mxPoint x="450" y="167" as="targetPoint" />
          </mxGeometry>
        </mxCell>
        <mxCell id="NGxbDgoNibZJ7JYDKcb8-15" value="" style="endArrow=none;html=1;rounded=0;startArrow=classic;startFill=1;" edge="1" parent="1">
          <mxGeometry width="50" height="50" relative="1" as="geometry">
            <mxPoint x="611" y="237" as="sourcePoint" />
            <mxPoint x="611" y="167" as="targetPoint" />
          </mxGeometry>
        </mxCell>
        <mxCell id="NGxbDgoNibZJ7JYDKcb8-16" value="" style="endArrow=none;html=1;rounded=0;startArrow=classic;startFill=1;" edge="1" parent="1">
          <mxGeometry width="50" height="50" relative="1" as="geometry">
            <mxPoint x="769" y="238" as="sourcePoint" />
            <mxPoint x="769" y="168" as="targetPoint" />
          </mxGeometry>
        </mxCell>
        <mxCell id="NGxbDgoNibZJ7JYDKcb8-17" value="ServiceRegistry" style="sketch=0;pointerEvents=1;shadow=0;dashed=0;html=1;strokeColor=#666666;labelPosition=center;verticalLabelPosition=middle;verticalAlign=middle;outlineConnect=0;align=center;shape=mxgraph.office.concepts.folder;fillColor=#f5f5f5;fontStyle=1;fontColor=#333333;" vertex="1" parent="1">
          <mxGeometry x="560" y="500" width="110" height="90" as="geometry" />
        </mxCell>
        <mxCell id="NGxbDgoNibZJ7JYDKcb8-18" value="EventQueue" style="sketch=0;pointerEvents=1;shadow=0;dashed=0;html=1;strokeColor=#666666;labelPosition=center;verticalLabelPosition=middle;verticalAlign=middle;outlineConnect=0;align=center;shape=mxgraph.office.concepts.folder;fillColor=#f5f5f5;fontStyle=1;fontColor=#333333;" vertex="1" parent="1">
          <mxGeometry x="560" y="660" width="110" height="90" as="geometry" />
        </mxCell>
        <mxCell id="NGxbDgoNibZJ7JYDKcb8-19" value="Submission&lt;br&gt;Queue" style="sketch=0;pointerEvents=1;shadow=0;dashed=0;html=1;strokeColor=#666666;labelPosition=center;verticalLabelPosition=middle;verticalAlign=middle;outlineConnect=0;align=center;shape=mxgraph.office.concepts.folder;fillColor=#f5f5f5;fontStyle=1;fontColor=#333333;" vertex="1" parent="1">
          <mxGeometry x="560" y="790" width="110" height="90" as="geometry" />
        </mxCell>
        <mxCell id="NGxbDgoNibZJ7JYDKcb8-20" value="Notification&lt;br&gt;Queue" style="sketch=0;pointerEvents=1;shadow=0;dashed=0;html=1;strokeColor=#666666;labelPosition=center;verticalLabelPosition=middle;verticalAlign=middle;outlineConnect=0;align=center;shape=mxgraph.office.concepts.folder;fillColor=#f5f5f5;fontStyle=1;fontColor=#333333;" vertex="1" parent="1">
          <mxGeometry x="394" y="660" width="110" height="90" as="geometry" />
        </mxCell>
        <mxCell id="NGxbDgoNibZJ7JYDKcb8-23" value="Driver" style="sketch=0;pointerEvents=1;shadow=0;dashed=0;html=1;strokeColor=#82b366;labelPosition=center;verticalLabelPosition=middle;verticalAlign=middle;outlineConnect=0;align=center;shape=mxgraph.office.concepts.folder;fillColor=#d5e8d4;fontStyle=1" vertex="1" parent="1">
          <mxGeometry x="240" y="500" width="110" height="90" as="geometry" />
        </mxCell>
        <mxCell id="NGxbDgoNibZJ7JYDKcb8-24" value="Driver" style="sketch=0;pointerEvents=1;shadow=0;dashed=0;html=1;strokeColor=#82b366;labelPosition=center;verticalLabelPosition=middle;verticalAlign=middle;outlineConnect=0;align=center;shape=mxgraph.office.concepts.folder;fillColor=#d5e8d4;fontStyle=1" vertex="1" parent="1">
          <mxGeometry x="397" y="500" width="110" height="90" as="geometry" />
        </mxCell>
        <mxCell id="NGxbDgoNibZJ7JYDKcb8-29" value="GitHubIntegration&lt;br&gt;Service" style="sketch=0;pointerEvents=1;shadow=0;dashed=0;html=1;strokeColor=#666666;labelPosition=center;verticalLabelPosition=middle;verticalAlign=middle;outlineConnect=0;align=center;shape=mxgraph.office.concepts.folder;fillColor=#f5f5f5;fontStyle=1;fontColor=#333333;" vertex="1" parent="1">
          <mxGeometry x="247" y="660" width="110" height="90" as="geometry" />
        </mxCell>
        <mxCell id="NGxbDgoNibZJ7JYDKcb8-30" value="Notification&lt;br&gt;Service" style="sketch=0;pointerEvents=1;shadow=0;dashed=0;html=1;strokeColor=#666666;labelPosition=center;verticalLabelPosition=middle;verticalAlign=middle;outlineConnect=0;align=center;shape=mxgraph.office.concepts.folder;fillColor=#f5f5f5;fontStyle=1;fontColor=#333333;" vertex="1" parent="1">
          <mxGeometry x="397" y="816" width="110" height="90" as="geometry" />
        </mxCell>
        <mxCell id="NGxbDgoNibZJ7JYDKcb8-34" value="" style="endArrow=none;html=1;rounded=0;startArrow=classic;startFill=1;" edge="1" parent="1">
          <mxGeometry width="50" height="50" relative="1" as="geometry">
            <mxPoint x="442" y="826" as="sourcePoint" />
            <mxPoint x="442" y="754" as="targetPoint" />
          </mxGeometry>
        </mxCell>
        <mxCell id="NGxbDgoNibZJ7JYDKcb8-35" value="" style="endArrow=none;html=1;rounded=0;startArrow=classic;startFill=1;" edge="1" parent="1">
          <mxGeometry width="50" height="50" relative="1" as="geometry">
            <mxPoint x="440" y="667" as="sourcePoint" />
            <mxPoint x="440" y="595" as="targetPoint" />
          </mxGeometry>
        </mxCell>
        <mxCell id="NGxbDgoNibZJ7JYDKcb8-36" value="" style="endArrow=none;html=1;rounded=0;startArrow=classic;startFill=1;" edge="1" parent="1">
          <mxGeometry width="50" height="50" relative="1" as="geometry">
            <mxPoint x="290" y="666" as="sourcePoint" />
            <mxPoint x="290" y="594" as="targetPoint" />
          </mxGeometry>
        </mxCell>
        <mxCell id="NGxbDgoNibZJ7JYDKcb8-37" value="ServiceRegistry" style="sketch=0;pointerEvents=1;shadow=0;dashed=0;html=1;labelPosition=center;verticalLabelPosition=middle;verticalAlign=middle;outlineConnect=0;align=center;shape=mxgraph.office.concepts.folder;fontStyle=1;fillColor=#f5f5f5;strokeColor=#666666;fontColor=#333333;" vertex="1" parent="1">
          <mxGeometry x="560" y="1070" width="110" height="90" as="geometry" />
        </mxCell>
        <mxCell id="NGxbDgoNibZJ7JYDKcb8-38" value="EventQueue" style="sketch=0;pointerEvents=1;shadow=0;dashed=0;html=1;labelPosition=center;verticalLabelPosition=middle;verticalAlign=middle;outlineConnect=0;align=center;shape=mxgraph.office.concepts.folder;fontStyle=1;fillColor=#f5f5f5;fontColor=#333333;strokeColor=#666666;" vertex="1" parent="1">
          <mxGeometry x="247" y="1391" width="110" height="90" as="geometry" />
        </mxCell>
        <mxCell id="NGxbDgoNibZJ7JYDKcb8-39" value="Submission&lt;br&gt;Queue" style="sketch=0;pointerEvents=1;shadow=0;dashed=0;html=1;labelPosition=center;verticalLabelPosition=middle;verticalAlign=middle;outlineConnect=0;align=center;shape=mxgraph.office.concepts.folder;fontStyle=1;fillColor=#f5f5f5;fontColor=#333333;strokeColor=#666666;" vertex="1" parent="1">
          <mxGeometry x="567" y="1342" width="110" height="90" as="geometry" />
        </mxCell>
        <mxCell id="NGxbDgoNibZJ7JYDKcb8-40" value="Notification&lt;br&gt;Queue" style="sketch=0;pointerEvents=1;shadow=0;dashed=0;html=1;labelPosition=center;verticalLabelPosition=middle;verticalAlign=middle;outlineConnect=0;align=center;shape=mxgraph.office.concepts.folder;fontStyle=1;fillColor=#f5f5f5;fontColor=#333333;strokeColor=#666666;" vertex="1" parent="1">
          <mxGeometry x="404" y="1391" width="110" height="90" as="geometry" />
        </mxCell>
        <mxCell id="NGxbDgoNibZJ7JYDKcb8-41" value="Driver" style="sketch=0;pointerEvents=1;shadow=0;dashed=0;html=1;strokeColor=#82b366;labelPosition=center;verticalLabelPosition=middle;verticalAlign=middle;outlineConnect=0;align=center;shape=mxgraph.office.concepts.folder;fillColor=#d5e8d4;fontStyle=1" vertex="1" parent="1">
          <mxGeometry x="247" y="1070" width="110" height="90" as="geometry" />
        </mxCell>
        <mxCell id="NGxbDgoNibZJ7JYDKcb8-42" value="Driver" style="sketch=0;pointerEvents=1;shadow=0;dashed=0;html=1;strokeColor=#82b366;labelPosition=center;verticalLabelPosition=middle;verticalAlign=middle;outlineConnect=0;align=center;shape=mxgraph.office.concepts.folder;fillColor=#d5e8d4;fontStyle=1" vertex="1" parent="1">
          <mxGeometry x="404" y="1070" width="110" height="90" as="geometry" />
        </mxCell>
        <mxCell id="NGxbDgoNibZJ7JYDKcb8-43" value="GitHubIntegration&lt;br&gt;Service" style="sketch=0;pointerEvents=1;shadow=0;dashed=0;html=1;labelPosition=center;verticalLabelPosition=middle;verticalAlign=middle;outlineConnect=0;align=center;shape=mxgraph.office.concepts.folder;fontStyle=1;fillColor=#f5f5f5;fontColor=#333333;strokeColor=#666666;" vertex="1" parent="1">
          <mxGeometry x="564" y="1470" width="110" height="90" as="geometry" />
        </mxCell>
        <mxCell id="NGxbDgoNibZJ7JYDKcb8-44" value="Notification&lt;br&gt;Service" style="sketch=0;pointerEvents=1;shadow=0;dashed=0;html=1;labelPosition=center;verticalLabelPosition=middle;verticalAlign=middle;outlineConnect=0;align=center;shape=mxgraph.office.concepts.folder;fontStyle=1;fillColor=#f5f5f5;fontColor=#333333;strokeColor=#666666;" vertex="1" parent="1">
          <mxGeometry x="407" y="1544" width="110" height="90" as="geometry" />
        </mxCell>
        <mxCell id="NGxbDgoNibZJ7JYDKcb8-45" value="" style="endArrow=none;html=1;rounded=0;startArrow=classic;startFill=1;" edge="1" parent="1">
          <mxGeometry width="50" height="50" relative="1" as="geometry">
            <mxPoint x="452" y="1557" as="sourcePoint" />
            <mxPoint x="452" y="1485" as="targetPoint" />
          </mxGeometry>
        </mxCell>
        <mxCell id="NGxbDgoNibZJ7JYDKcb8-46" value="" style="endArrow=none;html=1;rounded=0;startArrow=classic;startFill=1;" edge="1" parent="1">
          <mxGeometry width="50" height="50" relative="1" as="geometry">
            <mxPoint x="450" y="1398" as="sourcePoint" />
            <mxPoint x="450" y="1326" as="targetPoint" />
          </mxGeometry>
        </mxCell>
        <mxCell id="NGxbDgoNibZJ7JYDKcb8-47" value="" style="endArrow=none;html=1;rounded=0;startArrow=classic;startFill=1;" edge="1" parent="1">
          <mxGeometry width="50" height="50" relative="1" as="geometry">
            <mxPoint x="297" y="1236" as="sourcePoint" />
            <mxPoint x="297" y="1164" as="targetPoint" />
          </mxGeometry>
        </mxCell>
        <mxCell id="NGxbDgoNibZJ7JYDKcb8-48" value="Auth&lt;br&gt;Service" style="sketch=0;pointerEvents=1;shadow=0;dashed=0;html=1;labelPosition=center;verticalLabelPosition=middle;verticalAlign=middle;outlineConnect=0;align=center;shape=mxgraph.office.concepts.folder;fontStyle=1;fillColor=#f5f5f5;fontColor=#333333;strokeColor=#666666;" vertex="1" parent="1">
          <mxGeometry x="404" y="1230" width="110" height="90" as="geometry" />
        </mxCell>
        <mxCell id="NGxbDgoNibZJ7JYDKcb8-49" value="" style="endArrow=none;html=1;rounded=0;startArrow=classic;startFill=1;" edge="1" parent="1">
          <mxGeometry width="50" height="50" relative="1" as="geometry">
            <mxPoint x="450" y="1237" as="sourcePoint" />
            <mxPoint x="450" y="1165" as="targetPoint" />
          </mxGeometry>
        </mxCell>
        <mxCell id="NGxbDgoNibZJ7JYDKcb8-51" value="Tournament&lt;br&gt;Service" style="sketch=0;pointerEvents=1;shadow=0;dashed=0;html=1;labelPosition=center;verticalLabelPosition=middle;verticalAlign=middle;outlineConnect=0;align=center;shape=mxgraph.office.concepts.folder;fontStyle=1;fillColor=#f5f5f5;fontColor=#333333;strokeColor=#666666;" vertex="1" parent="1">
          <mxGeometry x="247" y="1230" width="110" height="90" as="geometry" />
        </mxCell>
        <mxCell id="NGxbDgoNibZJ7JYDKcb8-52" value="" style="endArrow=none;html=1;rounded=0;startArrow=classic;startFill=1;" edge="1" parent="1">
          <mxGeometry width="50" height="50" relative="1" as="geometry">
            <mxPoint x="294.66" y="1402" as="sourcePoint" />
            <mxPoint x="294.66" y="1330" as="targetPoint" />
          </mxGeometry>
        </mxCell>
        <mxCell id="NGxbDgoNibZJ7JYDKcb8-53" value="Stub" style="sketch=0;pointerEvents=1;shadow=0;dashed=0;html=1;labelPosition=center;verticalLabelPosition=middle;verticalAlign=middle;outlineConnect=0;align=center;shape=mxgraph.office.concepts.folder;fontStyle=1;fillColor=#f8cecc;strokeColor=#b85450;" vertex="1" parent="1">
          <mxGeometry x="247" y="1544" width="110" height="90" as="geometry" />
        </mxCell>
        <mxCell id="NGxbDgoNibZJ7JYDKcb8-54" value="" style="endArrow=none;html=1;rounded=0;startArrow=classic;startFill=1;" edge="1" parent="1">
          <mxGeometry width="50" height="50" relative="1" as="geometry">
            <mxPoint x="292" y="1557" as="sourcePoint" />
            <mxPoint x="292" y="1485" as="targetPoint" />
          </mxGeometry>
        </mxCell>
        <mxCell id="NGxbDgoNibZJ7JYDKcb8-56" value="ServiceRegistry" style="sketch=0;pointerEvents=1;shadow=0;dashed=0;html=1;labelPosition=center;verticalLabelPosition=middle;verticalAlign=middle;outlineConnect=0;align=center;shape=mxgraph.office.concepts.folder;fontStyle=1;fillColor=#f5f5f5;strokeColor=#666666;fontColor=#333333;" vertex="1" parent="1">
          <mxGeometry x="850" y="2060" width="110" height="90" as="geometry" />
        </mxCell>
        <mxCell id="NGxbDgoNibZJ7JYDKcb8-57" value="EventQueue" style="sketch=0;pointerEvents=1;shadow=0;dashed=0;html=1;labelPosition=center;verticalLabelPosition=middle;verticalAlign=middle;outlineConnect=0;align=center;shape=mxgraph.office.concepts.folder;fontStyle=1;fillColor=#f5f5f5;fontColor=#333333;strokeColor=#666666;" vertex="1" parent="1">
          <mxGeometry x="640" y="2381" width="110" height="90" as="geometry" />
        </mxCell>
        <mxCell id="NGxbDgoNibZJ7JYDKcb8-58" value="Submission&lt;br&gt;Queue" style="sketch=0;pointerEvents=1;shadow=0;dashed=0;html=1;labelPosition=center;verticalLabelPosition=middle;verticalAlign=middle;outlineConnect=0;align=center;shape=mxgraph.office.concepts.folder;fontStyle=1;fillColor=#f5f5f5;fontColor=#333333;strokeColor=#666666;" vertex="1" parent="1">
          <mxGeometry x="430" y="2220" width="110" height="90" as="geometry" />
        </mxCell>
        <mxCell id="NGxbDgoNibZJ7JYDKcb8-59" value="Notification&lt;br&gt;Queue" style="sketch=0;pointerEvents=1;shadow=0;dashed=0;html=1;labelPosition=center;verticalLabelPosition=middle;verticalAlign=middle;outlineConnect=0;align=center;shape=mxgraph.office.concepts.folder;fontStyle=1;fillColor=#f5f5f5;fontColor=#333333;strokeColor=#666666;" vertex="1" parent="1">
          <mxGeometry x="1060" y="2371" width="110" height="90" as="geometry" />
        </mxCell>
        <mxCell id="NGxbDgoNibZJ7JYDKcb8-60" value="Driver" style="sketch=0;pointerEvents=1;shadow=0;dashed=0;html=1;strokeColor=#82b366;labelPosition=center;verticalLabelPosition=middle;verticalAlign=middle;outlineConnect=0;align=center;shape=mxgraph.office.concepts.folder;fillColor=#d5e8d4;fontStyle=1" vertex="1" parent="1">
          <mxGeometry x="640" y="2060" width="110" height="90" as="geometry" />
        </mxCell>
        <mxCell id="NGxbDgoNibZJ7JYDKcb8-62" value="GitHubIntegration&lt;br&gt;Service" style="sketch=0;pointerEvents=1;shadow=0;dashed=0;html=1;labelPosition=center;verticalLabelPosition=middle;verticalAlign=middle;outlineConnect=0;align=center;shape=mxgraph.office.concepts.folder;fontStyle=1;fillColor=#f5f5f5;fontColor=#333333;strokeColor=#666666;" vertex="1" parent="1">
          <mxGeometry x="640" y="2520" width="110" height="90" as="geometry" />
        </mxCell>
        <mxCell id="NGxbDgoNibZJ7JYDKcb8-63" value="Notification&lt;br&gt;Service" style="sketch=0;pointerEvents=1;shadow=0;dashed=0;html=1;labelPosition=center;verticalLabelPosition=middle;verticalAlign=middle;outlineConnect=0;align=center;shape=mxgraph.office.concepts.folder;fontStyle=1;fillColor=#f5f5f5;fontColor=#333333;strokeColor=#666666;" vertex="1" parent="1">
          <mxGeometry x="1063" y="2520" width="110" height="90" as="geometry" />
        </mxCell>
        <mxCell id="NGxbDgoNibZJ7JYDKcb8-64" value="" style="endArrow=none;html=1;rounded=0;startArrow=classic;startFill=1;" edge="1" parent="1">
          <mxGeometry width="50" height="50" relative="1" as="geometry">
            <mxPoint x="1108" y="2530" as="sourcePoint" />
            <mxPoint x="1108" y="2465" as="targetPoint" />
          </mxGeometry>
        </mxCell>
        <mxCell id="NGxbDgoNibZJ7JYDKcb8-65" value="" style="endArrow=none;html=1;rounded=0;startArrow=classic;startFill=1;" edge="1" parent="1">
          <mxGeometry width="50" height="50" relative="1" as="geometry">
            <mxPoint x="1106" y="2378" as="sourcePoint" />
            <mxPoint x="1106" y="2306" as="targetPoint" />
          </mxGeometry>
        </mxCell>
        <mxCell id="NGxbDgoNibZJ7JYDKcb8-66" value="" style="endArrow=none;html=1;rounded=0;startArrow=classic;startFill=1;" edge="1" parent="1">
          <mxGeometry width="50" height="50" relative="1" as="geometry">
            <mxPoint x="690" y="2226" as="sourcePoint" />
            <mxPoint x="690" y="2154" as="targetPoint" />
          </mxGeometry>
        </mxCell>
        <mxCell id="NGxbDgoNibZJ7JYDKcb8-67" value="Auth&lt;br&gt;Service" style="sketch=0;pointerEvents=1;shadow=0;dashed=0;html=1;labelPosition=center;verticalLabelPosition=middle;verticalAlign=middle;outlineConnect=0;align=center;shape=mxgraph.office.concepts.folder;fontStyle=1;fillColor=#f5f5f5;fontColor=#333333;strokeColor=#666666;" vertex="1" parent="1">
          <mxGeometry x="1060" y="2210" width="110" height="90" as="geometry" />
        </mxCell>
        <mxCell id="NGxbDgoNibZJ7JYDKcb8-69" value="Tournament&lt;br&gt;Service" style="sketch=0;pointerEvents=1;shadow=0;dashed=0;html=1;labelPosition=center;verticalLabelPosition=middle;verticalAlign=middle;outlineConnect=0;align=center;shape=mxgraph.office.concepts.folder;fontStyle=1;fillColor=#f5f5f5;fontColor=#333333;strokeColor=#666666;" vertex="1" parent="1">
          <mxGeometry x="640" y="2220" width="110" height="90" as="geometry" />
        </mxCell>
        <mxCell id="NGxbDgoNibZJ7JYDKcb8-70" value="" style="endArrow=none;html=1;rounded=0;startArrow=classic;startFill=1;" edge="1" parent="1">
          <mxGeometry width="50" height="50" relative="1" as="geometry">
            <mxPoint x="687.6600000000001" y="2392" as="sourcePoint" />
            <mxPoint x="687.6600000000001" y="2320" as="targetPoint" />
          </mxGeometry>
        </mxCell>
        <mxCell id="NGxbDgoNibZJ7JYDKcb8-73" value="EventService" style="sketch=0;pointerEvents=1;shadow=0;dashed=0;html=1;labelPosition=center;verticalLabelPosition=middle;verticalAlign=middle;outlineConnect=0;align=center;shape=mxgraph.office.concepts.folder;fontStyle=1;fillColor=#f5f5f5;fontColor=#333333;strokeColor=#666666;" vertex="1" parent="1">
          <mxGeometry x="850" y="2381" width="110" height="90" as="geometry" />
        </mxCell>
        <mxCell id="NGxbDgoNibZJ7JYDKcb8-74" value="" style="endArrow=none;html=1;rounded=0;startArrow=classic;startFill=1;" edge="1" parent="1">
          <mxGeometry width="50" height="50" relative="1" as="geometry">
            <mxPoint x="630" y="2321" as="sourcePoint" />
            <mxPoint x="560" y="2381" as="targetPoint" />
          </mxGeometry>
        </mxCell>
        <mxCell id="NGxbDgoNibZJ7JYDKcb8-75" value="EvaluationService" style="sketch=0;pointerEvents=1;shadow=0;dashed=0;html=1;labelPosition=center;verticalLabelPosition=middle;verticalAlign=middle;outlineConnect=0;align=center;shape=mxgraph.office.concepts.folder;fontStyle=1;fillColor=#f5f5f5;fontColor=#333333;strokeColor=#666666;" vertex="1" parent="1">
          <mxGeometry x="430" y="2381" width="110" height="90" as="geometry" />
        </mxCell>
        <mxCell id="NGxbDgoNibZJ7JYDKcb8-76" value="" style="endArrow=none;html=1;rounded=0;startArrow=classic;startFill=1;" edge="1" parent="1">
          <mxGeometry width="50" height="50" relative="1" as="geometry">
            <mxPoint x="474" y="2389" as="sourcePoint" />
            <mxPoint x="474" y="2317" as="targetPoint" />
          </mxGeometry>
        </mxCell>
        <mxCell id="NGxbDgoNibZJ7JYDKcb8-77" value="Driver" style="sketch=0;pointerEvents=1;shadow=0;dashed=0;html=1;strokeColor=#82b366;labelPosition=center;verticalLabelPosition=middle;verticalAlign=middle;outlineConnect=0;align=center;shape=mxgraph.office.concepts.folder;fillColor=#d5e8d4;fontStyle=1" vertex="1" parent="1">
          <mxGeometry x="430" y="2060" width="110" height="90" as="geometry" />
        </mxCell>
        <mxCell id="NGxbDgoNibZJ7JYDKcb8-78" value="" style="endArrow=none;html=1;rounded=0;startArrow=classic;startFill=1;" edge="1" parent="1">
          <mxGeometry width="50" height="50" relative="1" as="geometry">
            <mxPoint x="476" y="2227" as="sourcePoint" />
            <mxPoint x="476" y="2155" as="targetPoint" />
          </mxGeometry>
        </mxCell>
        <mxCell id="NGxbDgoNibZJ7JYDKcb8-141" value="" style="endArrow=none;html=1;rounded=0;startArrow=classic;startFill=1;" edge="1" parent="1">
          <mxGeometry width="50" height="50" relative="1" as="geometry">
            <mxPoint x="840" y="2430" as="sourcePoint" />
            <mxPoint x="760" y="2430" as="targetPoint" />
          </mxGeometry>
        </mxCell>
        <mxCell id="NGxbDgoNibZJ7JYDKcb8-142" value="" style="endArrow=none;html=1;rounded=0;startArrow=classic;startFill=1;" edge="1" parent="1">
          <mxGeometry width="50" height="50" relative="1" as="geometry">
            <mxPoint x="760" y="2307" as="sourcePoint" />
            <mxPoint x="840" y="2391" as="targetPoint" />
          </mxGeometry>
        </mxCell>
        <mxCell id="NGxbDgoNibZJ7JYDKcb8-143" value="" style="endArrow=none;html=1;rounded=0;startArrow=classic;startFill=1;" edge="1" parent="1">
          <mxGeometry width="50" height="50" relative="1" as="geometry">
            <mxPoint x="1040" y="2430" as="sourcePoint" />
            <mxPoint x="970" y="2430" as="targetPoint" />
          </mxGeometry>
        </mxCell>
        <mxCell id="NGxbDgoNibZJ7JYDKcb8-144" value="" style="endArrow=none;html=1;rounded=0;endFill=0;startArrow=classic;startFill=1;" edge="1" parent="1">
          <mxGeometry width="50" height="50" relative="1" as="geometry">
            <mxPoint x="1050" y="2300" as="sourcePoint" />
            <mxPoint x="960" y="2370" as="targetPoint" />
          </mxGeometry>
        </mxCell>
        <mxCell id="NGxbDgoNibZJ7JYDKcb8-145" value="" style="endArrow=classic;html=1;rounded=0;startArrow=none;startFill=0;endFill=1;" edge="1" parent="1">
          <mxGeometry width="50" height="50" relative="1" as="geometry">
            <mxPoint x="830" y="2460" as="sourcePoint" />
            <mxPoint x="760" y="2550" as="targetPoint" />
          </mxGeometry>
        </mxCell>
        <mxCell id="NGxbDgoNibZJ7JYDKcb8-146" value="" style="endArrow=classic;html=1;rounded=0;startArrow=none;startFill=0;endFill=1;" edge="1" parent="1">
          <mxGeometry width="50" height="50" relative="1" as="geometry">
            <mxPoint x="530" y="2480" as="sourcePoint" />
            <mxPoint x="630" y="2560" as="targetPoint" />
          </mxGeometry>
        </mxCell>
        <mxCell id="NGxbDgoNibZJ7JYDKcb8-151" value="APIGateway&lt;br&gt;Service" style="sketch=0;pointerEvents=1;shadow=0;dashed=0;html=1;strokeColor=#666666;labelPosition=center;verticalLabelPosition=middle;verticalAlign=middle;outlineConnect=0;align=center;shape=mxgraph.office.concepts.folder;fillColor=#f5f5f5;fontStyle=1;fontColor=#333333;" vertex="1" parent="1">
          <mxGeometry x="340" y="2930" width="110" height="90" as="geometry" />
        </mxCell>
        <mxCell id="NGxbDgoNibZJ7JYDKcb8-174" value="Driver" style="sketch=0;pointerEvents=1;shadow=0;dashed=0;html=1;strokeColor=#82b366;labelPosition=center;verticalLabelPosition=middle;verticalAlign=middle;outlineConnect=0;align=center;shape=mxgraph.office.concepts.folder;fillColor=#d5e8d4;fontStyle=1;" vertex="1" parent="1">
          <mxGeometry x="340" y="2780" width="110" height="90" as="geometry" />
        </mxCell>
        <mxCell id="NGxbDgoNibZJ7JYDKcb8-175" value="" style="endArrow=none;html=1;rounded=0;startArrow=classic;startFill=1;" edge="1" parent="1">
          <mxGeometry width="50" height="50" relative="1" as="geometry">
            <mxPoint x="391.40999999999997" y="2936" as="sourcePoint" />
            <mxPoint x="391.40999999999997" y="2880" as="targetPoint" />
          </mxGeometry>
        </mxCell>
        <mxCell id="NGxbDgoNibZJ7JYDKcb8-204" value="EventQueue" style="sketch=0;pointerEvents=1;shadow=0;dashed=0;html=1;labelPosition=center;verticalLabelPosition=middle;verticalAlign=middle;outlineConnect=0;align=center;shape=mxgraph.office.concepts.folder;fontStyle=1;fillColor=#f5f5f5;fontColor=#333333;strokeColor=#666666;" vertex="1" parent="1">
          <mxGeometry x="340" y="3261" width="110" height="90" as="geometry" />
        </mxCell>
        <mxCell id="NGxbDgoNibZJ7JYDKcb8-205" value="Submission&lt;br&gt;Queue" style="sketch=0;pointerEvents=1;shadow=0;dashed=0;html=1;labelPosition=center;verticalLabelPosition=middle;verticalAlign=middle;outlineConnect=0;align=center;shape=mxgraph.office.concepts.folder;fontStyle=1;fillColor=#f5f5f5;fontColor=#333333;strokeColor=#666666;" vertex="1" parent="1">
          <mxGeometry x="130" y="3100" width="110" height="90" as="geometry" />
        </mxCell>
        <mxCell id="NGxbDgoNibZJ7JYDKcb8-206" value="Notification&lt;br&gt;Queue" style="sketch=0;pointerEvents=1;shadow=0;dashed=0;html=1;labelPosition=center;verticalLabelPosition=middle;verticalAlign=middle;outlineConnect=0;align=center;shape=mxgraph.office.concepts.folder;fontStyle=1;fillColor=#f5f5f5;fontColor=#333333;strokeColor=#666666;" vertex="1" parent="1">
          <mxGeometry x="760" y="3251" width="110" height="90" as="geometry" />
        </mxCell>
        <mxCell id="NGxbDgoNibZJ7JYDKcb8-207" value="GitHubIntegration&lt;br&gt;Service" style="sketch=0;pointerEvents=1;shadow=0;dashed=0;html=1;labelPosition=center;verticalLabelPosition=middle;verticalAlign=middle;outlineConnect=0;align=center;shape=mxgraph.office.concepts.folder;fontStyle=1;fillColor=#f5f5f5;fontColor=#333333;strokeColor=#666666;" vertex="1" parent="1">
          <mxGeometry x="340" y="3400" width="110" height="90" as="geometry" />
        </mxCell>
        <mxCell id="NGxbDgoNibZJ7JYDKcb8-208" value="Notification&lt;br&gt;Service" style="sketch=0;pointerEvents=1;shadow=0;dashed=0;html=1;labelPosition=center;verticalLabelPosition=middle;verticalAlign=middle;outlineConnect=0;align=center;shape=mxgraph.office.concepts.folder;fontStyle=1;fillColor=#f5f5f5;fontColor=#333333;strokeColor=#666666;" vertex="1" parent="1">
          <mxGeometry x="763" y="3400" width="110" height="90" as="geometry" />
        </mxCell>
        <mxCell id="NGxbDgoNibZJ7JYDKcb8-209" value="" style="endArrow=none;html=1;rounded=0;startArrow=classic;startFill=1;" edge="1" parent="1">
          <mxGeometry width="50" height="50" relative="1" as="geometry">
            <mxPoint x="808" y="3410" as="sourcePoint" />
            <mxPoint x="808" y="3345" as="targetPoint" />
          </mxGeometry>
        </mxCell>
        <mxCell id="NGxbDgoNibZJ7JYDKcb8-210" value="" style="endArrow=none;html=1;rounded=0;startArrow=classic;startFill=1;" edge="1" parent="1">
          <mxGeometry width="50" height="50" relative="1" as="geometry">
            <mxPoint x="806" y="3258" as="sourcePoint" />
            <mxPoint x="806" y="3186" as="targetPoint" />
          </mxGeometry>
        </mxCell>
        <mxCell id="NGxbDgoNibZJ7JYDKcb8-211" value="Auth&lt;br&gt;Service" style="sketch=0;pointerEvents=1;shadow=0;dashed=0;html=1;labelPosition=center;verticalLabelPosition=middle;verticalAlign=middle;outlineConnect=0;align=center;shape=mxgraph.office.concepts.folder;fontStyle=1;fillColor=#f5f5f5;fontColor=#333333;strokeColor=#666666;" vertex="1" parent="1">
          <mxGeometry x="760" y="3090" width="110" height="90" as="geometry" />
        </mxCell>
        <mxCell id="NGxbDgoNibZJ7JYDKcb8-212" value="Tournament&lt;br&gt;Service" style="sketch=0;pointerEvents=1;shadow=0;dashed=0;html=1;labelPosition=center;verticalLabelPosition=middle;verticalAlign=middle;outlineConnect=0;align=center;shape=mxgraph.office.concepts.folder;fontStyle=1;fillColor=#f5f5f5;fontColor=#333333;strokeColor=#666666;" vertex="1" parent="1">
          <mxGeometry x="340" y="3100" width="110" height="90" as="geometry" />
        </mxCell>
        <mxCell id="NGxbDgoNibZJ7JYDKcb8-213" value="" style="endArrow=none;html=1;rounded=0;startArrow=classic;startFill=1;" edge="1" parent="1">
          <mxGeometry width="50" height="50" relative="1" as="geometry">
            <mxPoint x="387.6600000000001" y="3272" as="sourcePoint" />
            <mxPoint x="387.6600000000001" y="3200" as="targetPoint" />
          </mxGeometry>
        </mxCell>
        <mxCell id="NGxbDgoNibZJ7JYDKcb8-214" value="EventService" style="sketch=0;pointerEvents=1;shadow=0;dashed=0;html=1;labelPosition=center;verticalLabelPosition=middle;verticalAlign=middle;outlineConnect=0;align=center;shape=mxgraph.office.concepts.folder;fontStyle=1;fillColor=#f5f5f5;fontColor=#333333;strokeColor=#666666;" vertex="1" parent="1">
          <mxGeometry x="550" y="3261" width="110" height="90" as="geometry" />
        </mxCell>
        <mxCell id="NGxbDgoNibZJ7JYDKcb8-215" value="" style="endArrow=none;html=1;rounded=0;startArrow=classic;startFill=1;" edge="1" parent="1">
          <mxGeometry width="50" height="50" relative="1" as="geometry">
            <mxPoint x="330" y="3201" as="sourcePoint" />
            <mxPoint x="260" y="3261" as="targetPoint" />
          </mxGeometry>
        </mxCell>
        <mxCell id="NGxbDgoNibZJ7JYDKcb8-216" value="EvaluationService" style="sketch=0;pointerEvents=1;shadow=0;dashed=0;html=1;labelPosition=center;verticalLabelPosition=middle;verticalAlign=middle;outlineConnect=0;align=center;shape=mxgraph.office.concepts.folder;fontStyle=1;fillColor=#f5f5f5;fontColor=#333333;strokeColor=#666666;" vertex="1" parent="1">
          <mxGeometry x="130" y="3261" width="110" height="90" as="geometry" />
        </mxCell>
        <mxCell id="NGxbDgoNibZJ7JYDKcb8-217" value="" style="endArrow=none;html=1;rounded=0;startArrow=classic;startFill=1;" edge="1" parent="1">
          <mxGeometry width="50" height="50" relative="1" as="geometry">
            <mxPoint x="174" y="3269" as="sourcePoint" />
            <mxPoint x="174" y="3197" as="targetPoint" />
          </mxGeometry>
        </mxCell>
        <mxCell id="NGxbDgoNibZJ7JYDKcb8-218" value="" style="endArrow=none;html=1;rounded=0;startArrow=classic;startFill=1;" edge="1" parent="1">
          <mxGeometry width="50" height="50" relative="1" as="geometry">
            <mxPoint x="540" y="3310" as="sourcePoint" />
            <mxPoint x="460" y="3310" as="targetPoint" />
          </mxGeometry>
        </mxCell>
        <mxCell id="NGxbDgoNibZJ7JYDKcb8-219" value="" style="endArrow=none;html=1;rounded=0;startArrow=classic;startFill=1;" edge="1" parent="1">
          <mxGeometry width="50" height="50" relative="1" as="geometry">
            <mxPoint x="460" y="3187" as="sourcePoint" />
            <mxPoint x="540" y="3271" as="targetPoint" />
          </mxGeometry>
        </mxCell>
        <mxCell id="NGxbDgoNibZJ7JYDKcb8-220" value="" style="endArrow=none;html=1;rounded=0;startArrow=classic;startFill=1;" edge="1" parent="1">
          <mxGeometry width="50" height="50" relative="1" as="geometry">
            <mxPoint x="740" y="3310" as="sourcePoint" />
            <mxPoint x="670" y="3310" as="targetPoint" />
          </mxGeometry>
        </mxCell>
        <mxCell id="NGxbDgoNibZJ7JYDKcb8-221" value="" style="endArrow=none;html=1;rounded=0;endFill=0;startArrow=classic;startFill=1;" edge="1" parent="1">
          <mxGeometry width="50" height="50" relative="1" as="geometry">
            <mxPoint x="750" y="3180" as="sourcePoint" />
            <mxPoint x="660" y="3250" as="targetPoint" />
          </mxGeometry>
        </mxCell>
        <mxCell id="NGxbDgoNibZJ7JYDKcb8-222" value="" style="endArrow=classic;html=1;rounded=0;startArrow=none;startFill=0;endFill=1;" edge="1" parent="1">
          <mxGeometry width="50" height="50" relative="1" as="geometry">
            <mxPoint x="530" y="3340" as="sourcePoint" />
            <mxPoint x="460" y="3430" as="targetPoint" />
          </mxGeometry>
        </mxCell>
        <mxCell id="NGxbDgoNibZJ7JYDKcb8-223" value="" style="endArrow=classic;html=1;rounded=0;startArrow=none;startFill=0;endFill=1;" edge="1" parent="1">
          <mxGeometry width="50" height="50" relative="1" as="geometry">
            <mxPoint x="230" y="3360" as="sourcePoint" />
            <mxPoint x="330" y="3440" as="targetPoint" />
          </mxGeometry>
        </mxCell>
        <mxCell id="NGxbDgoNibZJ7JYDKcb8-224" value="ServiceRegistry" style="sketch=0;pointerEvents=1;shadow=0;dashed=0;html=1;labelPosition=center;verticalLabelPosition=middle;verticalAlign=middle;outlineConnect=0;align=center;shape=mxgraph.office.concepts.folder;fontStyle=1;fillColor=#f5f5f5;strokeColor=#666666;fontColor=#333333;" vertex="1" parent="1">
          <mxGeometry x="580" y="2930" width="110" height="90" as="geometry" />
        </mxCell>
        <mxCell id="NGxbDgoNibZJ7JYDKcb8-225" value="" style="endArrow=none;html=1;rounded=0;startArrow=classic;startFill=1;" edge="1" parent="1">
          <mxGeometry width="50" height="50" relative="1" as="geometry">
            <mxPoint x="240" y="3090" as="sourcePoint" />
            <mxPoint x="330" y="3020" as="targetPoint" />
          </mxGeometry>
        </mxCell>
        <mxCell id="NGxbDgoNibZJ7JYDKcb8-226" value="" style="endArrow=none;html=1;rounded=0;startArrow=classic;startFill=1;" edge="1" parent="1">
          <mxGeometry width="50" height="50" relative="1" as="geometry">
            <mxPoint x="394" y="3100" as="sourcePoint" />
            <mxPoint x="394" y="3028" as="targetPoint" />
          </mxGeometry>
        </mxCell>
        <mxCell id="NGxbDgoNibZJ7JYDKcb8-227" value="" style="endArrow=none;html=1;rounded=0;startArrow=classic;startFill=1;" edge="1" parent="1">
          <mxGeometry width="50" height="50" relative="1" as="geometry">
            <mxPoint x="750" y="3090" as="sourcePoint" />
            <mxPoint x="460" y="3020" as="targetPoint" />
          </mxGeometry>
        </mxCell>
        <mxCell id="NGxbDgoNibZJ7JYDKcb8-228" value="APIGateway&lt;br&gt;Service" style="sketch=0;pointerEvents=1;shadow=0;dashed=0;html=1;strokeColor=#666666;labelPosition=center;verticalLabelPosition=middle;verticalAlign=middle;outlineConnect=0;align=center;shape=mxgraph.office.concepts.folder;fillColor=#f5f5f5;fontStyle=1;fontColor=#333333;" vertex="1" parent="1">
          <mxGeometry x="340" y="3870" width="110" height="90" as="geometry" />
        </mxCell>
        <mxCell id="NGxbDgoNibZJ7JYDKcb8-229" value="WebApplication" style="sketch=0;pointerEvents=1;shadow=0;dashed=0;html=1;strokeColor=#d6b656;labelPosition=center;verticalLabelPosition=middle;verticalAlign=middle;outlineConnect=0;align=center;shape=mxgraph.office.concepts.folder;fillColor=#fff2cc;fontStyle=1;" vertex="1" parent="1">
          <mxGeometry x="340" y="3720" width="110" height="90" as="geometry" />
        </mxCell>
        <mxCell id="NGxbDgoNibZJ7JYDKcb8-230" value="" style="endArrow=none;html=1;rounded=0;startArrow=classic;startFill=1;" edge="1" parent="1">
          <mxGeometry width="50" height="50" relative="1" as="geometry">
            <mxPoint x="391.40999999999997" y="3876" as="sourcePoint" />
            <mxPoint x="391.40999999999997" y="3820" as="targetPoint" />
          </mxGeometry>
        </mxCell>
        <mxCell id="NGxbDgoNibZJ7JYDKcb8-231" value="EventQueue" style="sketch=0;pointerEvents=1;shadow=0;dashed=0;html=1;labelPosition=center;verticalLabelPosition=middle;verticalAlign=middle;outlineConnect=0;align=center;shape=mxgraph.office.concepts.folder;fontStyle=1;fillColor=#f5f5f5;fontColor=#333333;strokeColor=#666666;" vertex="1" parent="1">
          <mxGeometry x="340" y="4201" width="110" height="90" as="geometry" />
        </mxCell>
        <mxCell id="NGxbDgoNibZJ7JYDKcb8-232" value="Submission&lt;br&gt;Queue" style="sketch=0;pointerEvents=1;shadow=0;dashed=0;html=1;labelPosition=center;verticalLabelPosition=middle;verticalAlign=middle;outlineConnect=0;align=center;shape=mxgraph.office.concepts.folder;fontStyle=1;fillColor=#f5f5f5;fontColor=#333333;strokeColor=#666666;" vertex="1" parent="1">
          <mxGeometry x="130" y="4040" width="110" height="90" as="geometry" />
        </mxCell>
        <mxCell id="NGxbDgoNibZJ7JYDKcb8-233" value="Notification&lt;br&gt;Queue" style="sketch=0;pointerEvents=1;shadow=0;dashed=0;html=1;labelPosition=center;verticalLabelPosition=middle;verticalAlign=middle;outlineConnect=0;align=center;shape=mxgraph.office.concepts.folder;fontStyle=1;fillColor=#f5f5f5;fontColor=#333333;strokeColor=#666666;" vertex="1" parent="1">
          <mxGeometry x="760" y="4191" width="110" height="90" as="geometry" />
        </mxCell>
        <mxCell id="NGxbDgoNibZJ7JYDKcb8-234" value="GitHubIntegration&lt;br&gt;Service" style="sketch=0;pointerEvents=1;shadow=0;dashed=0;html=1;labelPosition=center;verticalLabelPosition=middle;verticalAlign=middle;outlineConnect=0;align=center;shape=mxgraph.office.concepts.folder;fontStyle=1;fillColor=#f5f5f5;fontColor=#333333;strokeColor=#666666;" vertex="1" parent="1">
          <mxGeometry x="340" y="4340" width="110" height="90" as="geometry" />
        </mxCell>
        <mxCell id="NGxbDgoNibZJ7JYDKcb8-235" value="Notification&lt;br&gt;Service" style="sketch=0;pointerEvents=1;shadow=0;dashed=0;html=1;labelPosition=center;verticalLabelPosition=middle;verticalAlign=middle;outlineConnect=0;align=center;shape=mxgraph.office.concepts.folder;fontStyle=1;fillColor=#f5f5f5;fontColor=#333333;strokeColor=#666666;" vertex="1" parent="1">
          <mxGeometry x="763" y="4340" width="110" height="90" as="geometry" />
        </mxCell>
        <mxCell id="NGxbDgoNibZJ7JYDKcb8-236" value="" style="endArrow=none;html=1;rounded=0;startArrow=classic;startFill=1;" edge="1" parent="1">
          <mxGeometry width="50" height="50" relative="1" as="geometry">
            <mxPoint x="808" y="4350" as="sourcePoint" />
            <mxPoint x="808" y="4285" as="targetPoint" />
          </mxGeometry>
        </mxCell>
        <mxCell id="NGxbDgoNibZJ7JYDKcb8-237" value="" style="endArrow=none;html=1;rounded=0;startArrow=classic;startFill=1;" edge="1" parent="1">
          <mxGeometry width="50" height="50" relative="1" as="geometry">
            <mxPoint x="806" y="4198" as="sourcePoint" />
            <mxPoint x="806" y="4126" as="targetPoint" />
          </mxGeometry>
        </mxCell>
        <mxCell id="NGxbDgoNibZJ7JYDKcb8-238" value="Auth&lt;br&gt;Service" style="sketch=0;pointerEvents=1;shadow=0;dashed=0;html=1;labelPosition=center;verticalLabelPosition=middle;verticalAlign=middle;outlineConnect=0;align=center;shape=mxgraph.office.concepts.folder;fontStyle=1;fillColor=#f5f5f5;fontColor=#333333;strokeColor=#666666;" vertex="1" parent="1">
          <mxGeometry x="760" y="4030" width="110" height="90" as="geometry" />
        </mxCell>
        <mxCell id="NGxbDgoNibZJ7JYDKcb8-239" value="Tournament&lt;br&gt;Service" style="sketch=0;pointerEvents=1;shadow=0;dashed=0;html=1;labelPosition=center;verticalLabelPosition=middle;verticalAlign=middle;outlineConnect=0;align=center;shape=mxgraph.office.concepts.folder;fontStyle=1;fillColor=#f5f5f5;fontColor=#333333;strokeColor=#666666;" vertex="1" parent="1">
          <mxGeometry x="340" y="4040" width="110" height="90" as="geometry" />
        </mxCell>
        <mxCell id="NGxbDgoNibZJ7JYDKcb8-240" value="" style="endArrow=none;html=1;rounded=0;startArrow=classic;startFill=1;" edge="1" parent="1">
          <mxGeometry width="50" height="50" relative="1" as="geometry">
            <mxPoint x="387.6600000000001" y="4212" as="sourcePoint" />
            <mxPoint x="387.6600000000001" y="4140" as="targetPoint" />
          </mxGeometry>
        </mxCell>
        <mxCell id="NGxbDgoNibZJ7JYDKcb8-241" value="EventService" style="sketch=0;pointerEvents=1;shadow=0;dashed=0;html=1;labelPosition=center;verticalLabelPosition=middle;verticalAlign=middle;outlineConnect=0;align=center;shape=mxgraph.office.concepts.folder;fontStyle=1;fillColor=#f5f5f5;fontColor=#333333;strokeColor=#666666;" vertex="1" parent="1">
          <mxGeometry x="550" y="4201" width="110" height="90" as="geometry" />
        </mxCell>
        <mxCell id="NGxbDgoNibZJ7JYDKcb8-242" value="" style="endArrow=none;html=1;rounded=0;startArrow=classic;startFill=1;" edge="1" parent="1">
          <mxGeometry width="50" height="50" relative="1" as="geometry">
            <mxPoint x="330" y="4141" as="sourcePoint" />
            <mxPoint x="260" y="4201" as="targetPoint" />
          </mxGeometry>
        </mxCell>
        <mxCell id="NGxbDgoNibZJ7JYDKcb8-243" value="EvaluationService" style="sketch=0;pointerEvents=1;shadow=0;dashed=0;html=1;labelPosition=center;verticalLabelPosition=middle;verticalAlign=middle;outlineConnect=0;align=center;shape=mxgraph.office.concepts.folder;fontStyle=1;fillColor=#f5f5f5;fontColor=#333333;strokeColor=#666666;" vertex="1" parent="1">
          <mxGeometry x="130" y="4201" width="110" height="90" as="geometry" />
        </mxCell>
        <mxCell id="NGxbDgoNibZJ7JYDKcb8-244" value="" style="endArrow=none;html=1;rounded=0;startArrow=classic;startFill=1;" edge="1" parent="1">
          <mxGeometry width="50" height="50" relative="1" as="geometry">
            <mxPoint x="174" y="4209" as="sourcePoint" />
            <mxPoint x="174" y="4137" as="targetPoint" />
          </mxGeometry>
        </mxCell>
        <mxCell id="NGxbDgoNibZJ7JYDKcb8-245" value="" style="endArrow=none;html=1;rounded=0;startArrow=classic;startFill=1;" edge="1" parent="1">
          <mxGeometry width="50" height="50" relative="1" as="geometry">
            <mxPoint x="540" y="4250" as="sourcePoint" />
            <mxPoint x="460" y="4250" as="targetPoint" />
          </mxGeometry>
        </mxCell>
        <mxCell id="NGxbDgoNibZJ7JYDKcb8-246" value="" style="endArrow=none;html=1;rounded=0;startArrow=classic;startFill=1;" edge="1" parent="1">
          <mxGeometry width="50" height="50" relative="1" as="geometry">
            <mxPoint x="460" y="4127" as="sourcePoint" />
            <mxPoint x="540" y="4211" as="targetPoint" />
          </mxGeometry>
        </mxCell>
        <mxCell id="NGxbDgoNibZJ7JYDKcb8-247" value="" style="endArrow=none;html=1;rounded=0;startArrow=classic;startFill=1;" edge="1" parent="1">
          <mxGeometry width="50" height="50" relative="1" as="geometry">
            <mxPoint x="740" y="4250" as="sourcePoint" />
            <mxPoint x="670" y="4250" as="targetPoint" />
          </mxGeometry>
        </mxCell>
        <mxCell id="NGxbDgoNibZJ7JYDKcb8-248" value="" style="endArrow=none;html=1;rounded=0;endFill=0;startArrow=classic;startFill=1;" edge="1" parent="1">
          <mxGeometry width="50" height="50" relative="1" as="geometry">
            <mxPoint x="750" y="4120" as="sourcePoint" />
            <mxPoint x="660" y="4190" as="targetPoint" />
          </mxGeometry>
        </mxCell>
        <mxCell id="NGxbDgoNibZJ7JYDKcb8-249" value="" style="endArrow=classic;html=1;rounded=0;startArrow=none;startFill=0;endFill=1;" edge="1" parent="1">
          <mxGeometry width="50" height="50" relative="1" as="geometry">
            <mxPoint x="530" y="4280" as="sourcePoint" />
            <mxPoint x="460" y="4370" as="targetPoint" />
          </mxGeometry>
        </mxCell>
        <mxCell id="NGxbDgoNibZJ7JYDKcb8-250" value="" style="endArrow=classic;html=1;rounded=0;startArrow=none;startFill=0;endFill=1;" edge="1" parent="1">
          <mxGeometry width="50" height="50" relative="1" as="geometry">
            <mxPoint x="230" y="4300" as="sourcePoint" />
            <mxPoint x="330" y="4380" as="targetPoint" />
          </mxGeometry>
        </mxCell>
        <mxCell id="NGxbDgoNibZJ7JYDKcb8-251" value="ServiceRegistry" style="sketch=0;pointerEvents=1;shadow=0;dashed=0;html=1;labelPosition=center;verticalLabelPosition=middle;verticalAlign=middle;outlineConnect=0;align=center;shape=mxgraph.office.concepts.folder;fontStyle=1;fillColor=#f5f5f5;strokeColor=#666666;fontColor=#333333;" vertex="1" parent="1">
          <mxGeometry x="580" y="3870" width="110" height="90" as="geometry" />
        </mxCell>
        <mxCell id="NGxbDgoNibZJ7JYDKcb8-252" value="" style="endArrow=none;html=1;rounded=0;startArrow=classic;startFill=1;" edge="1" parent="1">
          <mxGeometry width="50" height="50" relative="1" as="geometry">
            <mxPoint x="240" y="4030" as="sourcePoint" />
            <mxPoint x="330" y="3960" as="targetPoint" />
          </mxGeometry>
        </mxCell>
        <mxCell id="NGxbDgoNibZJ7JYDKcb8-253" value="" style="endArrow=none;html=1;rounded=0;startArrow=classic;startFill=1;" edge="1" parent="1">
          <mxGeometry width="50" height="50" relative="1" as="geometry">
            <mxPoint x="394" y="4040" as="sourcePoint" />
            <mxPoint x="394" y="3968" as="targetPoint" />
          </mxGeometry>
        </mxCell>
        <mxCell id="NGxbDgoNibZJ7JYDKcb8-254" value="" style="endArrow=none;html=1;rounded=0;startArrow=classic;startFill=1;" edge="1" parent="1">
          <mxGeometry width="50" height="50" relative="1" as="geometry">
            <mxPoint x="750" y="4030" as="sourcePoint" />
            <mxPoint x="460" y="3960" as="targetPoint" />
          </mxGeometry>
        </mxCell>
      </root>
    </mxGraphModel>
  </diagram>
</mxfile>
